<svg width="10" height="8" viewBox="0 0 10 8" fill="none" xmlns="http://www.w3.org/2000/svg">
<path d="M4.90234 7.88672L4.29688 7.33984C3.60677 6.71484 3.10547 6.2526 2.79297 5.95312C2.48047 5.65365 2.12891 5.28255 1.73828 4.83984C1.36068 4.39714 1.10026 4 0.957031 3.64844C0.813802 3.28385 0.742188 2.91276 0.742188 2.53516C0.742188 1.89714 0.957031 1.35677 1.38672 0.914062C1.82943 0.471354 2.3763 0.25 3.02734 0.25C3.78255 0.25 4.40755 0.542969 4.90234 1.12891C5.39714 0.542969 6.02214 0.25 6.77734 0.25C7.42839 0.25 7.96875 0.471354 8.39844 0.914062C8.84115 1.35677 9.0625 1.89714 9.0625 2.53516C9.0625 3.04297 8.89323 3.57031 8.55469 4.11719C8.21615 4.66406 7.84505 5.13932 7.44141 5.54297C7.05078 5.94661 6.40625 6.55208 5.50781 7.35938L4.90234 7.88672Z" fill="url(#paint0_linear_240018_9)"/>
<defs>
<linearGradient id="paint0_linear_240018_9" x1="4.90237" y1="-6" x2="4.90237" y2="14" gradientUnits="userSpaceOnUse">
<stop stop-color="#BC9CFF"/>
<stop offset="1" stop-color="#8BA4F9"/>
</linearGradient>
</defs>
</svg>
